<?xml version="1.0" encoding="UTF-8" standalone="no"?>
<svg width="270.228mm" height="63.5mm"
 xmlns="http://www.w3.org/2000/svg" xmlns:xlink="http://www.w3.org/1999/xlink"  version="1.2" baseProfile="tiny">
<title>Qt SVG Document</title>
<desc>Generated with Qt</desc>
<defs>
</defs>
<g fill="none" stroke="black" stroke-width="1" fill-rule="evenodd" stroke-linecap="square" stroke-linejoin="bevel" >

<g fill="none" stroke="#000000" stroke-opacity="1" stroke-width="1" stroke-linecap="square" stroke-linejoin="bevel" transform="matrix(1,0,0,1,0,0)"
font-family="Ubuntu" font-size="11" font-weight="400" font-style="normal" 
>
</g>

<g fill="none" stroke="#000000" stroke-opacity="1" stroke-width="1" stroke-linecap="square" stroke-linejoin="bevel" transform="matrix(1,0,0,1,0,0)"
font-family="Ubuntu" font-size="11" font-weight="400" font-style="normal" 
>
</g>

<g fill="none" stroke="#000000" stroke-opacity="1" stroke-width="1" stroke-linecap="square" stroke-linejoin="bevel" transform="matrix(2,0,0,2,-0.0016,180)"
font-family="Ubuntu" font-size="11" font-weight="400" font-style="normal" 
>
</g>

<g fill="#ffffff" fill-opacity="1" stroke="none" transform="matrix(2,0,0,2,-0.0016,180)"
font-family="Ubuntu" font-size="11" font-weight="400" font-style="normal" 
>
<rect x="0.0008" y="-90" width="382.876" height="90"/>
</g>

<g fill="none" stroke="#000000" stroke-opacity="1" stroke-width="1" stroke-linecap="square" stroke-linejoin="bevel" transform="matrix(2,0,0,2,-0.0016,180)"
font-family="Ubuntu" font-size="11" font-weight="400" font-style="normal" 
>
</g>

<g fill="none" stroke="#000000" stroke-opacity="1" stroke-width="1" stroke-linecap="square" stroke-linejoin="bevel" transform="matrix(2,0,0,2,-0.0016,180)"
font-family="Ubuntu" font-size="11" font-weight="400" font-style="normal" 
>
</g>

<g fill="none" stroke="#000000" stroke-opacity="1" stroke-width="1" stroke-linecap="square" stroke-linejoin="bevel" transform="matrix(2,0,0,2,-0.0016,180)"
font-family="Ubuntu" font-size="11" font-weight="400" font-style="normal" 
>
</g>

<g fill="none" stroke="#000000" stroke-opacity="1" stroke-width="1" stroke-linecap="square" stroke-linejoin="bevel" transform="matrix(2,0,0,2,-0.0016,180)"
font-family="Ubuntu" font-size="11" font-weight="400" font-style="normal" 
>
</g>

<g fill="none" stroke="#000000" stroke-opacity="1" stroke-width="1" stroke-linecap="square" stroke-linejoin="round" transform="matrix(2,0,0,2,-0.0016,180)"
font-family="Ubuntu" font-size="11" font-weight="400" font-style="normal" 
>
<ellipse cx="122.84" cy="-18" rx="122.339" ry="17.5"/>
</g>

<g fill="none" stroke="#000000" stroke-opacity="1" stroke-width="1" stroke-linecap="square" stroke-linejoin="bevel" transform="matrix(2,0,0,2,-0.0016,180)"
font-family="Ubuntu" font-size="11" font-weight="400" font-style="normal" 
>
</g>

<g fill="none" stroke="#000000" stroke-opacity="1" stroke-width="1" stroke-linecap="square" stroke-linejoin="bevel" transform="matrix(2,0,0,2,70.8971,131)"
font-family="Ubuntu" font-size="11" font-weight="400" font-style="normal" 
>
</g>

<g fill="none" stroke="#000000" stroke-opacity="1" stroke-width="1" stroke-linecap="square" stroke-linejoin="bevel" transform="matrix(2,0,0,2,70.8971,131)"
font-family="sans" font-size="11" font-weight="100" font-style="normal" 
>
</g>

<g fill="#000000" fill-opacity="1" stroke="#000000" stroke-opacity="1" stroke-width="1" stroke-linecap="square" stroke-linejoin="round" transform="matrix(2,0,0,2,70.8971,131)"
font-family="sans" font-size="11" font-weight="100" font-style="normal" 
>
<path vector-effect="none" fill-rule="nonzero" d="M2.96875,1.98438 L3.53125,1.98438 L0.734375,11.0156 L0.171875,11.0156 L2.96875,1.98438 M9.5,6.375 L9.5,10 L9,10 L9,6.40625 C9,5.625 8.875,5.07552 8.625,4.75781 C8.375,4.4401 8.00521,4.28125 7.51562,4.28125 C6.94271,4.28125 6.45833,4.45312 6.0625,4.79688 C5.64583,5.14062 5.4375,5.73958 5.4375,6.59375 L5.4375,10 L4.95312,10 L4.95312,3.98438 L5.4375,3.98438 L5.4375,5.10938 C5.61458,4.74479 5.84896,4.46875 6.14062,4.28125 C6.55729,3.98958 7.02083,3.84375 7.53125,3.84375 C8.13542,3.84375 8.61458,4.04688 8.96875,4.45312 C9.32292,4.84896 9.5,5.48958 9.5,6.375 M15.5,5.01562 C15.1458,4.52604 14.6615,4.28125 14.0469,4.28125 C13.4323,4.28125 12.9479,4.52604 12.5938,5.01562 C12.2396,5.49479 12.0625,6.15104 12.0625,6.98438 C12.0625,7.83854 12.2396,8.51042 12.5938,9 C12.9479,9.48958 13.4323,9.73438 14.0469,9.73438 C14.6615,9.73438 15.1458,9.48958 15.5,9 C15.8542,8.5 16.0312,7.82812 16.0312,6.98438 C16.0312,6.16146 15.8542,5.50521 15.5,5.01562 M14.0469,3.84375 C14.8073,3.84375 15.4115,4.13021 15.8594,4.70312 C16.3073,5.27604 16.5312,6.03646 16.5312,6.98438 C16.5312,7.97396 16.3073,8.75521 15.8594,9.32812 C15.4115,9.90104 14.8073,10.1875 14.0469,10.1875 C13.2656,10.1875 12.651,9.90104 12.2031,9.32812 C11.7656,8.75521 11.5469,7.97396 11.5469,6.98438 C11.5469,6.02604 11.7708,5.26302 12.2188,4.69531 C12.6667,4.1276 13.276,3.84375 14.0469,3.84375 M22.6406,5.35938 L22.6406,1.64062 L23.1094,1.64062 L23.1094,10 L22.6406,10 L22.6406,8.64062 C22.4115,9.16146 22.1615,9.51562 21.8906,9.70312 C21.4948,10.0052 21.1146,10.1562 20.75,10.1562 C20.0417,10.1562 19.4505,9.86719 18.9766,9.28906 C18.5026,8.71094 18.2656,7.94792 18.2656,7 C18.2656,6.05208 18.5026,5.28906 18.9766,4.71094 C19.4505,4.13281 20.0417,3.84375 20.75,3.84375 C21.1146,3.84375 21.4948,3.98958 21.8906,4.28125 C22.1615,4.47917 22.4115,4.83854 22.6406,5.35938 M19.4062,4.90625 C18.9896,5.32292 18.7812,6.02083 18.7812,7 C18.7812,7.97917 18.9896,8.67708 19.4062,9.09375 C19.8229,9.51042 20.2604,9.71875 20.7188,9.71875 C21.1667,9.71875 21.599,9.51042 22.0156,9.09375 C22.4219,8.67708 22.625,7.97917 22.625,7 C22.625,6.02083 22.4219,5.32292 22.0156,4.90625 C21.599,4.48958 21.1667,4.28125 20.7188,4.28125 C20.2604,4.28125 19.8229,4.48958 19.4062,4.90625 M29.1875,5.01562 C28.8333,4.52604 28.349,4.28125 27.7344,4.28125 C27.1198,4.28125 26.6354,4.52604 26.2812,5.01562 C25.9271,5.49479 25.75,6.15104 25.75,6.98438 C25.75,7.83854 25.9271,8.51042 26.2812,9 C26.6354,9.48958 27.1198,9.73438 27.7344,9.73438 C28.349,9.73438 28.8333,9.48958 29.1875,9 C29.5417,8.5 29.7188,7.82812 29.7188,6.98438 C29.7188,6.16146 29.5417,5.50521 29.1875,5.01562 M27.7344,3.84375 C28.4948,3.84375 29.099,4.13021 29.5469,4.70312 C29.9948,5.27604 30.2188,6.03646 30.2188,6.98438 C30.2188,7.97396 29.9948,8.75521 29.5469,9.32812 C29.099,9.90104 28.4948,10.1875 27.7344,10.1875 C26.9531,10.1875 26.3385,9.90104 25.8906,9.32812 C25.4531,8.75521 25.2344,7.97396 25.2344,6.98438 C25.2344,6.02604 25.4583,5.26302 25.9062,4.69531 C26.3542,4.1276 26.9635,3.84375 27.7344,3.84375 M32.4062,9.5625 L36.9688,9.5625 L36.9688,10 L31.8438,10 L31.8438,9.4375 L33.8438,7.35938 C34.3333,6.85938 34.7812,6.39583 35.1875,5.96875 C35.5521,5.57292 35.7969,5.26562 35.9219,5.04688 C36.0469,4.82812 36.1094,4.53646 36.1094,4.17188 C36.1094,3.55729 35.9219,3.0625 35.5469,2.6875 C35.276,2.41667 34.8333,2.28125 34.2188,2.28125 C33.8542,2.28125 33.4427,2.38542 32.9844,2.59375 C32.776,2.6875 32.4271,2.89062 31.9375,3.20312 L31.9375,2.64062 C32.1458,2.49479 32.4479,2.32812 32.8438,2.14062 C33.3021,1.94271 33.7552,1.83854 34.2031,1.82812 C34.8906,1.82812 35.4688,2.01042 35.9375,2.375 C36.3958,2.72917 36.625,3.3125 36.625,4.125 C36.625,4.45833 36.5625,4.77083 36.4375,5.0625 C36.2917,5.40625 36.0677,5.75521 35.7656,6.10938 C35.6719,6.21354 35.3854,6.51042 34.9062,7 L32.4062,9.5625 M43.6719,12.1719 L43.6719,12.5938 L37.9531,12.5938 L37.9531,12.1719 L43.6719,12.1719 M44.8906,9.5625 L49.4531,9.5625 L49.4531,10 L44.3281,10 L44.3281,9.4375 L46.3281,7.35938 C46.8177,6.85938 47.2656,6.39583 47.6719,5.96875 C48.0365,5.57292 48.2812,5.26562 48.4062,5.04688 C48.5312,4.82812 48.5938,4.53646 48.5938,4.17188 C48.5938,3.55729 48.4062,3.0625 48.0312,2.6875 C47.7604,2.41667 47.3177,2.28125 46.7031,2.28125 C46.3385,2.28125 45.9271,2.38542 45.4688,2.59375 C45.2604,2.6875 44.9115,2.89062 44.4219,3.20312 L44.4219,2.64062 C44.6302,2.49479 44.9323,2.32812 45.3281,2.14062 C45.7865,1.94271 46.2396,1.83854 46.6875,1.82812 C47.375,1.82812 47.9531,2.01042 48.4219,2.375 C48.8802,2.72917 49.1094,3.3125 49.1094,4.125 C49.1094,4.45833 49.0469,4.77083 48.9219,5.0625 C48.776,5.40625 48.5521,5.75521 48.25,6.10938 C48.1562,6.21354 47.8698,6.51042 47.3906,7 L44.8906,9.5625 M52.0312,9.82812 L52.0312,9.26562 C52.2812,9.41146 52.5312,9.52604 52.7812,9.60938 C53.0312,9.68229 53.2812,9.71875 53.5312,9.71875 C54.5938,9.71875 55.3385,9.19792 55.7656,8.15625 C55.9635,7.67708 56.0521,6.86979 56.0312,5.73438 C55.8542,6.13021 55.625,6.4375 55.3438,6.65625 C54.9792,6.94792 54.5208,7.09375 53.9688,7.09375 C53.2917,7.09375 52.7292,6.85417 52.2812,6.375 C51.8333,5.90625 51.6094,5.30208 51.6094,4.5625 C51.6094,3.73958 51.8281,3.07812 52.2656,2.57812 C52.7135,2.07812 53.2865,1.82812 53.9844,1.82812 C54.8281,1.82812 55.474,2.1875 55.9219,2.90625 C56.3698,3.61458 56.5938,4.64583 56.5938,6 C56.5938,7.4375 56.3177,8.48958 55.7656,9.15625 C55.224,9.82292 54.4896,10.1562 53.5625,10.1562 C53.3125,10.1562 53.0625,10.1302 52.8125,10.0781 C52.5625,10.026 52.3021,9.94271 52.0312,9.82812 M52.6719,6.05469 C53.0052,6.44531 53.4557,6.64062 54.0234,6.64062 C54.5911,6.64062 55.0417,6.44531 55.375,6.05469 C55.7083,5.66406 55.875,5.13021 55.875,4.45312 C55.875,3.77604 55.7083,3.24219 55.375,2.85156 C55.0417,2.46094 54.5911,2.26562 54.0234,2.26562 C53.4557,2.26562 53.0052,2.46094 52.6719,2.85156 C52.3385,3.24219 52.1719,3.77604 52.1719,4.45312 C52.1719,5.13021 52.3385,5.66406 52.6719,6.05469 M59.1719,9.5625 L60.9375,9.5625 L60.9375,2.46875 L58.7344,3.35938 L58.7344,2.85938 L60.9219,1.98438 L61.4688,1.98438 L61.4688,9.5625 L63.25,9.5625 L63.25,10 L59.1719,10 L59.1719,9.5625 M65.9219,1.98438 L69.7188,1.98438 L69.7188,2.42188 L66.4531,2.42188 L66.4531,5.10938 C66.6198,5.04688 66.7812,5 66.9375,4.96875 C67.0938,4.9375 67.3229,4.92188 67.625,4.92188 C68.4479,4.92188 69.099,5.15104 69.5781,5.60938 C70.0573,6.05729 70.2969,6.66146 70.2969,7.42188 C70.2969,8.28646 70.0469,8.95833 69.5469,9.4375 C69.0573,9.91667 68.3646,10.1562 67.4688,10.1562 C67.1771,10.1562 66.875,10.1302 66.5625,10.0781 C66.25,10.026 65.9271,9.95312 65.5938,9.85938 L65.5938,9.3125 C65.875,9.4375 66.1667,9.53646 66.4688,9.60938 C66.7708,9.67188 67.0885,9.70312 67.4219,9.70312 C68.1302,9.70312 68.6979,9.5 69.125,9.09375 C69.5521,8.6875 69.7656,8.13021 69.7656,7.42188 C69.7656,6.78646 69.5573,6.28646 69.1406,5.92188 C68.724,5.54688 68.1615,5.35938 67.4531,5.35938 C67.3073,5.35938 67.0885,5.40104 66.7969,5.48438 C66.5156,5.55729 66.224,5.67708 65.9219,5.84375 L65.9219,1.98438 M72.8281,9.5625 L77.3906,9.5625 L77.3906,10 L72.2656,10 L72.2656,9.4375 L74.2656,7.35938 C74.7552,6.85938 75.2031,6.39583 75.6094,5.96875 C75.974,5.57292 76.2188,5.26562 76.3438,5.04688 C76.4688,4.82812 76.5312,4.53646 76.5312,4.17188 C76.5312,3.55729 76.3438,3.0625 75.9688,2.6875 C75.6979,2.41667 75.2552,2.28125 74.6406,2.28125 C74.276,2.28125 73.8646,2.38542 73.4062,2.59375 C73.1979,2.6875 72.849,2.89062 72.3594,3.20312 L72.3594,2.64062 C72.5677,2.49479 72.8698,2.32812 73.2656,2.14062 C73.724,1.94271 74.1771,1.83854 74.625,1.82812 C75.3125,1.82812 75.8906,2.01042 76.3594,2.375 C76.8177,2.72917 77.0469,3.3125 77.0469,4.125 C77.0469,4.45833 76.9844,4.77083 76.8594,5.0625 C76.7135,5.40625 76.4896,5.75521 76.1875,6.10938 C76.0938,6.21354 75.8073,6.51042 75.3281,7 L72.8281,9.5625 M84.0938,12.1719 L84.0938,12.5938 L78.375,12.5938 L78.375,12.1719 L84.0938,12.1719 M85.625,9.5625 L87.3906,9.5625 L87.3906,2.46875 L85.1875,3.35938 L85.1875,2.85938 L87.375,1.98438 L87.9219,1.98438 L87.9219,9.5625 L89.7031,9.5625 L89.7031,10 L85.625,10 L85.625,9.5625 M92.375,1.98438 L96.1719,1.98438 L96.1719,2.42188 L92.9062,2.42188 L92.9062,5.10938 C93.0729,5.04688 93.2344,5 93.3906,4.96875 C93.5469,4.9375 93.776,4.92188 94.0781,4.92188 C94.901,4.92188 95.5521,5.15104 96.0312,5.60938 C96.5104,6.05729 96.75,6.66146 96.75,7.42188 C96.75,8.28646 96.5,8.95833 96,9.4375 C95.5104,9.91667 94.8177,10.1562 93.9219,10.1562 C93.6302,10.1562 93.3281,10.1302 93.0156,10.0781 C92.7031,10.026 92.3802,9.95312 92.0469,9.85938 L92.0469,9.3125 C92.3281,9.4375 92.6198,9.53646 92.9219,9.60938 C93.224,9.67188 93.5417,9.70312 93.875,9.70312 C94.5833,9.70312 95.151,9.5 95.5781,9.09375 C96.0052,8.6875 96.2188,8.13021 96.2188,7.42188 C96.2188,6.78646 96.0104,6.28646 95.5938,5.92188 C95.1771,5.54688 94.6146,5.35938 93.9062,5.35938 C93.7604,5.35938 93.5417,5.40104 93.25,5.48438 C92.9688,5.55729 92.6771,5.67708 92.375,5.84375 L92.375,1.98438 M99.2812,9.5625 L103.844,9.5625 L103.844,10 L98.7188,10 L98.7188,9.4375 L100.719,7.35938 C101.208,6.85938 101.656,6.39583 102.062,5.96875 C102.427,5.57292 102.672,5.26562 102.797,5.04688 C102.922,4.82812 102.984,4.53646 102.984,4.17188 C102.984,3.55729 102.797,3.0625 102.422,2.6875 C102.151,2.41667 101.708,2.28125 101.094,2.28125 C100.729,2.28125 100.318,2.38542 99.8594,2.59375 C99.651,2.6875 99.3021,2.89062 98.8125,3.20312 L98.8125,2.64062 C99.0208,2.49479 99.3229,2.32812 99.7188,2.14062 C100.177,1.94271 100.63,1.83854 101.078,1.82812 C101.766,1.82812 102.344,2.01042 102.812,2.375 C103.271,2.72917 103.5,3.3125 103.5,4.125 C103.5,4.45833 103.438,4.77083 103.312,5.0625 C103.167,5.40625 102.943,5.75521 102.641,6.10938 C102.547,6.21354 102.26,6.51042 101.781,7 L99.2812,9.5625 M109.406,5.67188 C109.833,5.77604 110.172,6.01042 110.422,6.375 C110.661,6.71875 110.781,7.15104 110.781,7.67188 C110.781,8.46354 110.555,9.07552 110.102,9.50781 C109.648,9.9401 108.922,10.1562 107.922,10.1562 C107.578,10.1562 107.229,10.1042 106.875,10 C106.521,9.89583 106.156,9.72917 105.781,9.5 L105.781,8.92188 C106.083,9.18229 106.411,9.38021 106.766,9.51562 C107.12,9.65104 107.484,9.71875 107.859,9.71875 C108.63,9.71875 109.219,9.54167 109.625,9.1875 C110.031,8.84375 110.234,8.33854 110.234,7.67188 C110.234,7.13021 110.047,6.70312 109.672,6.39062 C109.297,6.08854 108.771,5.9375 108.094,5.9375 L107.156,5.9375 L107.156,5.48438 L108.141,5.48438 C108.755,5.48438 109.229,5.35938 109.562,5.10938 C109.885,4.85938 110.047,4.5 110.047,4.03125 C110.047,3.46875 109.88,3.03646 109.547,2.73438 C109.203,2.43229 108.719,2.28125 108.094,2.28125 C107.802,2.28125 107.484,2.33333 107.141,2.4375 C106.797,2.54167 106.422,2.70312 106.016,2.92188 L106.016,2.375 C106.432,2.19792 106.818,2.06771 107.172,1.98438 C107.536,1.89062 107.875,1.83854 108.188,1.82812 C109.01,1.82812 109.62,2.01562 110.016,2.39062 C110.401,2.76562 110.594,3.27604 110.594,3.92188 C110.594,4.33854 110.49,4.70833 110.281,5.03125 C110.083,5.34375 109.792,5.55729 109.406,5.67188 M115.422,6 C114.818,6 114.344,6.16667 114,6.5 C113.667,6.83333 113.5,7.28906 113.5,7.86719 C113.5,8.44531 113.667,8.90104 114,9.23438 C114.344,9.56771 114.815,9.73438 115.414,9.73438 C116.013,9.73438 116.484,9.56771 116.828,9.23438 C117.182,8.90104 117.359,8.44792 117.359,7.875 C117.359,7.29167 117.188,6.83333 116.844,6.5 C116.5,6.16667 116.026,6 115.422,6 M114.328,5.73438 C113.984,5.59896 113.703,5.38021 113.484,5.07812 C113.245,4.76562 113.125,4.38021 113.125,3.92188 C113.125,3.27604 113.331,2.76562 113.742,2.39062 C114.154,2.01562 114.714,1.82812 115.422,1.82812 C116.13,1.82812 116.688,2.01562 117.094,2.39062 C117.5,2.76562 117.703,3.27604 117.703,3.92188 C117.703,4.39062 117.589,4.77604 117.359,5.07812 C117.12,5.39062 116.839,5.60938 116.516,5.73438 C116.911,5.85938 117.234,6.09375 117.484,6.4375 C117.745,6.79167 117.875,7.22917 117.875,7.75 C117.875,8.52083 117.667,9.11458 117.25,9.53125 C116.823,9.94792 116.214,10.1562 115.422,10.1562 C114.63,10.1562 114.021,9.94792 113.594,9.53125 C113.167,9.11458 112.953,8.52083 112.953,7.75 C112.953,7.22917 113.083,6.79167 113.344,6.4375 C113.635,6.08333 113.964,5.84896 114.328,5.73438 M114.133,2.71094 C113.826,2.9974 113.672,3.40104 113.672,3.92188 C113.672,4.44271 113.826,4.84896 114.133,5.14062 C114.44,5.43229 114.87,5.57812 115.422,5.57812 C115.964,5.57812 116.391,5.43229 116.703,5.14062 C117.016,4.84896 117.172,4.44271 117.172,3.92188 C117.172,3.40104 117.016,3 116.703,2.71875 C116.391,2.42708 115.964,2.28125 115.422,2.28125 C114.87,2.28125 114.44,2.42448 114.133,2.71094 M120.234,9.5625 L124.797,9.5625 L124.797,10 L119.672,10 L119.672,9.4375 L121.672,7.35938 C122.161,6.85938 122.609,6.39583 123.016,5.96875 C123.38,5.57292 123.625,5.26562 123.75,5.04688 C123.875,4.82812 123.938,4.53646 123.938,4.17188 C123.938,3.55729 123.75,3.0625 123.375,2.6875 C123.104,2.41667 122.661,2.28125 122.047,2.28125 C121.682,2.28125 121.271,2.38542 120.812,2.59375 C120.604,2.6875 120.255,2.89062 119.766,3.20312 L119.766,2.64062 C119.974,2.49479 120.276,2.32812 120.672,2.14062 C121.13,1.94271 121.583,1.83854 122.031,1.82812 C122.719,1.82812 123.297,2.01042 123.766,2.375 C124.224,2.72917 124.453,3.3125 124.453,4.125 C124.453,4.45833 124.391,4.77083 124.266,5.0625 C124.12,5.40625 123.896,5.75521 123.594,6.10938 C123.5,6.21354 123.214,6.51042 122.734,7 L120.234,9.5625 M130.359,5.67188 C130.786,5.77604 131.125,6.01042 131.375,6.375 C131.615,6.71875 131.734,7.15104 131.734,7.67188 C131.734,8.46354 131.508,9.07552 131.055,9.50781 C130.602,9.9401 129.875,10.1562 128.875,10.1562 C128.531,10.1562 128.182,10.1042 127.828,10 C127.474,9.89583 127.109,9.72917 126.734,9.5 L126.734,8.92188 C127.036,9.18229 127.365,9.38021 127.719,9.51562 C128.073,9.65104 128.438,9.71875 128.812,9.71875 C129.583,9.71875 130.172,9.54167 130.578,9.1875 C130.984,8.84375 131.188,8.33854 131.188,7.67188 C131.188,7.13021 131,6.70312 130.625,6.39062 C130.25,6.08854 129.724,5.9375 129.047,5.9375 L128.109,5.9375 L128.109,5.48438 L129.094,5.48438 C129.708,5.48438 130.182,5.35938 130.516,5.10938 C130.839,4.85938 131,4.5 131,4.03125 C131,3.46875 130.833,3.03646 130.5,2.73438 C130.156,2.43229 129.672,2.28125 129.047,2.28125 C128.755,2.28125 128.438,2.33333 128.094,2.4375 C127.75,2.54167 127.375,2.70312 126.969,2.92188 L126.969,2.375 C127.385,2.19792 127.771,2.06771 128.125,1.98438 C128.49,1.89062 128.828,1.83854 129.141,1.82812 C129.964,1.82812 130.573,2.01562 130.969,2.39062 C131.354,2.76562 131.547,3.27604 131.547,3.92188 C131.547,4.33854 131.443,4.70833 131.234,5.03125 C131.036,5.34375 130.745,5.55729 130.359,5.67188 M133.781,1.98438 L138.656,1.98438 L138.656,2.4375 L135.75,10 L135.172,10 L138.094,2.42188 L133.781,2.42188 L133.781,1.98438 M141.5,9.5625 L143.266,9.5625 L143.266,2.46875 L141.062,3.35938 L141.062,2.85938 L143.25,1.98438 L143.797,1.98438 L143.797,9.5625 L145.578,9.5625 L145.578,10 L141.5,10 L141.5,9.5625 M151.312,5.67188 C151.74,5.77604 152.078,6.01042 152.328,6.375 C152.568,6.71875 152.688,7.15104 152.688,7.67188 C152.688,8.46354 152.461,9.07552 152.008,9.50781 C151.555,9.9401 150.828,10.1562 149.828,10.1562 C149.484,10.1562 149.135,10.1042 148.781,10 C148.427,9.89583 148.062,9.72917 147.688,9.5 L147.688,8.92188 C147.99,9.18229 148.318,9.38021 148.672,9.51562 C149.026,9.65104 149.391,9.71875 149.766,9.71875 C150.536,9.71875 151.125,9.54167 151.531,9.1875 C151.938,8.84375 152.141,8.33854 152.141,7.67188 C152.141,7.13021 151.953,6.70312 151.578,6.39062 C151.203,6.08854 150.677,5.9375 150,5.9375 L149.062,5.9375 L149.062,5.48438 L150.047,5.48438 C150.661,5.48438 151.135,5.35938 151.469,5.10938 C151.792,4.85938 151.953,4.5 151.953,4.03125 C151.953,3.46875 151.786,3.03646 151.453,2.73438 C151.109,2.43229 150.625,2.28125 150,2.28125 C149.708,2.28125 149.391,2.33333 149.047,2.4375 C148.703,2.54167 148.328,2.70312 147.922,2.92188 L147.922,2.375 C148.339,2.19792 148.724,2.06771 149.078,1.98438 C149.443,1.89062 149.781,1.83854 150.094,1.82812 C150.917,1.82812 151.526,2.01562 151.922,2.39062 C152.307,2.76562 152.5,3.27604 152.5,3.92188 C152.5,4.33854 152.396,4.70833 152.188,5.03125 C151.99,5.34375 151.698,5.55729 151.312,5.67188 M155.312,9.82812 L155.312,9.26562 C155.562,9.41146 155.812,9.52604 156.062,9.60938 C156.312,9.68229 156.562,9.71875 156.812,9.71875 C157.875,9.71875 158.62,9.19792 159.047,8.15625 C159.245,7.67708 159.333,6.86979 159.312,5.73438 C159.135,6.13021 158.906,6.4375 158.625,6.65625 C158.26,6.94792 157.802,7.09375 157.25,7.09375 C156.573,7.09375 156.01,6.85417 155.562,6.375 C155.115,5.90625 154.891,5.30208 154.891,4.5625 C154.891,3.73958 155.109,3.07812 155.547,2.57812 C155.995,2.07812 156.568,1.82812 157.266,1.82812 C158.109,1.82812 158.755,2.1875 159.203,2.90625 C159.651,3.61458 159.875,4.64583 159.875,6 C159.875,7.4375 159.599,8.48958 159.047,9.15625 C158.505,9.82292 157.771,10.1562 156.844,10.1562 C156.594,10.1562 156.344,10.1302 156.094,10.0781 C155.844,10.026 155.583,9.94271 155.312,9.82812 M155.953,6.05469 C156.286,6.44531 156.737,6.64062 157.305,6.64062 C157.872,6.64062 158.323,6.44531 158.656,6.05469 C158.99,5.66406 159.156,5.13021 159.156,4.45312 C159.156,3.77604 158.99,3.24219 158.656,2.85156 C158.323,2.46094 157.872,2.26562 157.305,2.26562 C156.737,2.26562 156.286,2.46094 155.953,2.85156 C155.62,3.24219 155.453,3.77604 155.453,4.45312 C155.453,5.13021 155.62,5.66406 155.953,6.05469 M165.281,5.67188 C165.708,5.77604 166.047,6.01042 166.297,6.375 C166.536,6.71875 166.656,7.15104 166.656,7.67188 C166.656,8.46354 166.43,9.07552 165.977,9.50781 C165.523,9.9401 164.797,10.1562 163.797,10.1562 C163.453,10.1562 163.104,10.1042 162.75,10 C162.396,9.89583 162.031,9.72917 161.656,9.5 L161.656,8.92188 C161.958,9.18229 162.286,9.38021 162.641,9.51562 C162.995,9.65104 163.359,9.71875 163.734,9.71875 C164.505,9.71875 165.094,9.54167 165.5,9.1875 C165.906,8.84375 166.109,8.33854 166.109,7.67188 C166.109,7.13021 165.922,6.70312 165.547,6.39062 C165.172,6.08854 164.646,5.9375 163.969,5.9375 L163.031,5.9375 L163.031,5.48438 L164.016,5.48438 C164.63,5.48438 165.104,5.35938 165.438,5.10938 C165.76,4.85938 165.922,4.5 165.922,4.03125 C165.922,3.46875 165.755,3.03646 165.422,2.73438 C165.078,2.43229 164.594,2.28125 163.969,2.28125 C163.677,2.28125 163.359,2.33333 163.016,2.4375 C162.672,2.54167 162.297,2.70312 161.891,2.92188 L161.891,2.375 C162.307,2.19792 162.693,2.06771 163.047,1.98438 C163.411,1.89062 163.75,1.83854 164.062,1.82812 C164.885,1.82812 165.495,2.01562 165.891,2.39062 C166.276,2.76562 166.469,3.27604 166.469,3.92188 C166.469,4.33854 166.365,4.70833 166.156,5.03125 C165.958,5.34375 165.667,5.55729 165.281,5.67188 M168.703,1.98438 L173.578,1.98438 L173.578,2.4375 L170.672,10 L170.094,10 L173.016,2.42188 L168.703,2.42188 L168.703,1.98438"/>
</g>

<g fill="none" stroke="#000000" stroke-opacity="1" stroke-width="1" stroke-linecap="square" stroke-linejoin="bevel" transform="matrix(2,0,0,2,70.8971,131)"
font-family="sans" font-size="11" font-weight="100" font-style="normal" 
>
</g>

<g fill="none" stroke="#000000" stroke-opacity="1" stroke-width="1" stroke-linecap="square" stroke-linejoin="bevel" transform="matrix(2,0,0,2,70.8971,131)"
font-family="Ubuntu" font-size="11" font-weight="400" font-style="normal" 
>
</g>

<g fill="none" stroke="#000000" stroke-opacity="1" stroke-width="1" stroke-linecap="square" stroke-linejoin="bevel" transform="matrix(2,0,0,2,-0.0016,180)"
font-family="Ubuntu" font-size="11" font-weight="400" font-style="normal" 
>
</g>

<g fill="none" stroke="#000000" stroke-opacity="1" stroke-width="1" stroke-linecap="square" stroke-linejoin="bevel" transform="matrix(2,0,0,2,-0.0016,180)"
font-family="Ubuntu" font-size="11" font-weight="400" font-style="normal" 
>
</g>

<g fill="none" stroke="#000000" stroke-opacity="1" stroke-width="1" stroke-linecap="square" stroke-linejoin="bevel" transform="matrix(2,0,0,2,-0.0016,180)"
font-family="Ubuntu" font-size="11" font-weight="400" font-style="normal" 
>
</g>

<g fill="none" stroke="#000000" stroke-opacity="1" stroke-width="1" stroke-linecap="square" stroke-linejoin="round" transform="matrix(2,0,0,2,-0.0016,180)"
font-family="Ubuntu" font-size="11" font-weight="400" font-style="normal" 
>
<ellipse cx="347.78" cy="-45" rx="34.5968" ry="17.5"/>
</g>

<g fill="none" stroke="#000000" stroke-opacity="1" stroke-width="1" stroke-linecap="square" stroke-linejoin="bevel" transform="matrix(2,0,0,2,-0.0016,180)"
font-family="Ubuntu" font-size="11" font-weight="400" font-style="normal" 
>
</g>

<g fill="none" stroke="#000000" stroke-opacity="1" stroke-width="1" stroke-linecap="square" stroke-linejoin="bevel" transform="matrix(2,0,0,2,657.496,77)"
font-family="Ubuntu" font-size="11" font-weight="400" font-style="normal" 
>
</g>

<g fill="none" stroke="#000000" stroke-opacity="1" stroke-width="1" stroke-linecap="square" stroke-linejoin="bevel" transform="matrix(2,0,0,2,657.496,77)"
font-family="sans" font-size="11" font-weight="100" font-style="normal" 
>
</g>

<g fill="#000000" fill-opacity="1" stroke="#000000" stroke-opacity="1" stroke-width="1" stroke-linecap="square" stroke-linejoin="round" transform="matrix(2,0,0,2,657.496,77)"
font-family="sans" font-size="11" font-weight="100" font-style="normal" 
>
<path vector-effect="none" fill-rule="nonzero" d="M2.96875,1.98438 L3.53125,1.98438 L0.734375,11.0156 L0.171875,11.0156 L2.96875,1.98438 M9.5,6.375 L9.5,10 L9,10 L9,6.40625 C9,5.625 8.875,5.07552 8.625,4.75781 C8.375,4.4401 8.00521,4.28125 7.51562,4.28125 C6.94271,4.28125 6.45833,4.45312 6.0625,4.79688 C5.64583,5.14062 5.4375,5.73958 5.4375,6.59375 L5.4375,10 L4.95312,10 L4.95312,3.98438 L5.4375,3.98438 L5.4375,5.10938 C5.61458,4.74479 5.84896,4.46875 6.14062,4.28125 C6.55729,3.98958 7.02083,3.84375 7.53125,3.84375 C8.13542,3.84375 8.61458,4.04688 8.96875,4.45312 C9.32292,4.84896 9.5,5.48958 9.5,6.375 M15.5,5.01562 C15.1458,4.52604 14.6615,4.28125 14.0469,4.28125 C13.4323,4.28125 12.9479,4.52604 12.5938,5.01562 C12.2396,5.49479 12.0625,6.15104 12.0625,6.98438 C12.0625,7.83854 12.2396,8.51042 12.5938,9 C12.9479,9.48958 13.4323,9.73438 14.0469,9.73438 C14.6615,9.73438 15.1458,9.48958 15.5,9 C15.8542,8.5 16.0312,7.82812 16.0312,6.98438 C16.0312,6.16146 15.8542,5.50521 15.5,5.01562 M14.0469,3.84375 C14.8073,3.84375 15.4115,4.13021 15.8594,4.70312 C16.3073,5.27604 16.5312,6.03646 16.5312,6.98438 C16.5312,7.97396 16.3073,8.75521 15.8594,9.32812 C15.4115,9.90104 14.8073,10.1875 14.0469,10.1875 C13.2656,10.1875 12.651,9.90104 12.2031,9.32812 C11.7656,8.75521 11.5469,7.97396 11.5469,6.98438 C11.5469,6.02604 11.7708,5.26302 12.2188,4.69531 C12.6667,4.1276 13.276,3.84375 14.0469,3.84375 M22.6406,5.35938 L22.6406,1.64062 L23.1094,1.64062 L23.1094,10 L22.6406,10 L22.6406,8.64062 C22.4115,9.16146 22.1615,9.51562 21.8906,9.70312 C21.4948,10.0052 21.1146,10.1562 20.75,10.1562 C20.0417,10.1562 19.4505,9.86719 18.9766,9.28906 C18.5026,8.71094 18.2656,7.94792 18.2656,7 C18.2656,6.05208 18.5026,5.28906 18.9766,4.71094 C19.4505,4.13281 20.0417,3.84375 20.75,3.84375 C21.1146,3.84375 21.4948,3.98958 21.8906,4.28125 C22.1615,4.47917 22.4115,4.83854 22.6406,5.35938 M19.4062,4.90625 C18.9896,5.32292 18.7812,6.02083 18.7812,7 C18.7812,7.97917 18.9896,8.67708 19.4062,9.09375 C19.8229,9.51042 20.2604,9.71875 20.7188,9.71875 C21.1667,9.71875 21.599,9.51042 22.0156,9.09375 C22.4219,8.67708 22.625,7.97917 22.625,7 C22.625,6.02083 22.4219,5.32292 22.0156,4.90625 C21.599,4.48958 21.1667,4.28125 20.7188,4.28125 C20.2604,4.28125 19.8229,4.48958 19.4062,4.90625 M29.1875,5.01562 C28.8333,4.52604 28.349,4.28125 27.7344,4.28125 C27.1198,4.28125 26.6354,4.52604 26.2812,5.01562 C25.9271,5.49479 25.75,6.15104 25.75,6.98438 C25.75,7.83854 25.9271,8.51042 26.2812,9 C26.6354,9.48958 27.1198,9.73438 27.7344,9.73438 C28.349,9.73438 28.8333,9.48958 29.1875,9 C29.5417,8.5 29.7188,7.82812 29.7188,6.98438 C29.7188,6.16146 29.5417,5.50521 29.1875,5.01562 M27.7344,3.84375 C28.4948,3.84375 29.099,4.13021 29.5469,4.70312 C29.9948,5.27604 30.2188,6.03646 30.2188,6.98438 C30.2188,7.97396 29.9948,8.75521 29.5469,9.32812 C29.099,9.90104 28.4948,10.1875 27.7344,10.1875 C26.9531,10.1875 26.3385,9.90104 25.8906,9.32812 C25.4531,8.75521 25.2344,7.97396 25.2344,6.98438 C25.2344,6.02604 25.4583,5.26302 25.9062,4.69531 C26.3542,4.1276 26.9635,3.84375 27.7344,3.84375 M35.5469,5.67188 C35.974,5.77604 36.3125,6.01042 36.5625,6.375 C36.8021,6.71875 36.9219,7.15104 36.9219,7.67188 C36.9219,8.46354 36.6953,9.07552 36.2422,9.50781 C35.7891,9.9401 35.0625,10.1562 34.0625,10.1562 C33.7188,10.1562 33.3698,10.1042 33.0156,10 C32.6615,9.89583 32.2969,9.72917 31.9219,9.5 L31.9219,8.92188 C32.224,9.18229 32.5521,9.38021 32.9062,9.51562 C33.2604,9.65104 33.625,9.71875 34,9.71875 C34.7708,9.71875 35.3594,9.54167 35.7656,9.1875 C36.1719,8.84375 36.375,8.33854 36.375,7.67188 C36.375,7.13021 36.1875,6.70312 35.8125,6.39062 C35.4375,6.08854 34.9115,5.9375 34.2344,5.9375 L33.2969,5.9375 L33.2969,5.48438 L34.2812,5.48438 C34.8958,5.48438 35.3698,5.35938 35.7031,5.10938 C36.026,4.85938 36.1875,4.5 36.1875,4.03125 C36.1875,3.46875 36.0208,3.03646 35.6875,2.73438 C35.3438,2.43229 34.8594,2.28125 34.2344,2.28125 C33.9427,2.28125 33.625,2.33333 33.2812,2.4375 C32.9375,2.54167 32.5625,2.70312 32.1562,2.92188 L32.1562,2.375 C32.5729,2.19792 32.9583,2.06771 33.3125,1.98438 C33.6771,1.89062 34.0156,1.83854 34.3281,1.82812 C35.151,1.82812 35.7604,2.01562 36.1562,2.39062 C36.5417,2.76562 36.7344,3.27604 36.7344,3.92188 C36.7344,4.33854 36.6302,4.70833 36.4219,5.03125 C36.224,5.34375 35.9323,5.55729 35.5469,5.67188 "/>
</g>

<g fill="none" stroke="#000000" stroke-opacity="1" stroke-width="1" stroke-linecap="square" stroke-linejoin="bevel" transform="matrix(2,0,0,2,657.496,77)"
font-family="sans" font-size="11" font-weight="100" font-style="normal" 
>
</g>

<g fill="none" stroke="#000000" stroke-opacity="1" stroke-width="1" stroke-linecap="square" stroke-linejoin="bevel" transform="matrix(2,0,0,2,657.496,77)"
font-family="Ubuntu" font-size="11" font-weight="400" font-style="normal" 
>
</g>

<g fill="none" stroke="#000000" stroke-opacity="1" stroke-width="1" stroke-linecap="square" stroke-linejoin="bevel" transform="matrix(2,0,0,2,-0.0016,180)"
font-family="Ubuntu" font-size="11" font-weight="400" font-style="normal" 
>
</g>

<g fill="none" stroke="#000000" stroke-opacity="1" stroke-width="1" stroke-linecap="square" stroke-linejoin="bevel" transform="matrix(2,0,0,2,-0.0016,180)"
font-family="Ubuntu" font-size="11" font-weight="400" font-style="normal" 
>
</g>

<g fill="none" stroke="#000000" stroke-opacity="1" stroke-width="1" stroke-linecap="square" stroke-linejoin="bevel" transform="matrix(2,0,0,2,-0.0016,180)"
font-family="Ubuntu" font-size="11" font-weight="400" font-style="normal" 
>
</g>

<g fill="none" stroke="#000000" stroke-opacity="1" stroke-width="1" stroke-linecap="square" stroke-linejoin="round" transform="matrix(2,0,0,2,-0.0016,180)"
font-family="Ubuntu" font-size="11" font-weight="400" font-style="normal" 
>
<ellipse cx="122.84" cy="-72" rx="34.5968" ry="17.5"/>
</g>

<g fill="none" stroke="#000000" stroke-opacity="1" stroke-width="1" stroke-linecap="square" stroke-linejoin="bevel" transform="matrix(2,0,0,2,-0.0016,180)"
font-family="Ubuntu" font-size="11" font-weight="400" font-style="normal" 
>
</g>

<g fill="none" stroke="#000000" stroke-opacity="1" stroke-width="1" stroke-linecap="square" stroke-linejoin="bevel" transform="matrix(2,0,0,2,207.616,23)"
font-family="Ubuntu" font-size="11" font-weight="400" font-style="normal" 
>
</g>

<g fill="none" stroke="#000000" stroke-opacity="1" stroke-width="1" stroke-linecap="square" stroke-linejoin="bevel" transform="matrix(2,0,0,2,207.616,23)"
font-family="sans" font-size="11" font-weight="100" font-style="normal" 
>
</g>

<g fill="#000000" fill-opacity="1" stroke="#000000" stroke-opacity="1" stroke-width="1" stroke-linecap="square" stroke-linejoin="round" transform="matrix(2,0,0,2,207.616,23)"
font-family="sans" font-size="11" font-weight="100" font-style="normal" 
>
<path vector-effect="none" fill-rule="nonzero" d="M2.96875,1.98438 L3.53125,1.98438 L0.734375,11.0156 L0.171875,11.0156 L2.96875,1.98438 M9.5,6.375 L9.5,10 L9,10 L9,6.40625 C9,5.625 8.875,5.07552 8.625,4.75781 C8.375,4.4401 8.00521,4.28125 7.51562,4.28125 C6.94271,4.28125 6.45833,4.45312 6.0625,4.79688 C5.64583,5.14062 5.4375,5.73958 5.4375,6.59375 L5.4375,10 L4.95312,10 L4.95312,3.98438 L5.4375,3.98438 L5.4375,5.10938 C5.61458,4.74479 5.84896,4.46875 6.14062,4.28125 C6.55729,3.98958 7.02083,3.84375 7.53125,3.84375 C8.13542,3.84375 8.61458,4.04688 8.96875,4.45312 C9.32292,4.84896 9.5,5.48958 9.5,6.375 M15.5,5.01562 C15.1458,4.52604 14.6615,4.28125 14.0469,4.28125 C13.4323,4.28125 12.9479,4.52604 12.5938,5.01562 C12.2396,5.49479 12.0625,6.15104 12.0625,6.98438 C12.0625,7.83854 12.2396,8.51042 12.5938,9 C12.9479,9.48958 13.4323,9.73438 14.0469,9.73438 C14.6615,9.73438 15.1458,9.48958 15.5,9 C15.8542,8.5 16.0312,7.82812 16.0312,6.98438 C16.0312,6.16146 15.8542,5.50521 15.5,5.01562 M14.0469,3.84375 C14.8073,3.84375 15.4115,4.13021 15.8594,4.70312 C16.3073,5.27604 16.5312,6.03646 16.5312,6.98438 C16.5312,7.97396 16.3073,8.75521 15.8594,9.32812 C15.4115,9.90104 14.8073,10.1875 14.0469,10.1875 C13.2656,10.1875 12.651,9.90104 12.2031,9.32812 C11.7656,8.75521 11.5469,7.97396 11.5469,6.98438 C11.5469,6.02604 11.7708,5.26302 12.2188,4.69531 C12.6667,4.1276 13.276,3.84375 14.0469,3.84375 M22.6406,5.35938 L22.6406,1.64062 L23.1094,1.64062 L23.1094,10 L22.6406,10 L22.6406,8.64062 C22.4115,9.16146 22.1615,9.51562 21.8906,9.70312 C21.4948,10.0052 21.1146,10.1562 20.75,10.1562 C20.0417,10.1562 19.4505,9.86719 18.9766,9.28906 C18.5026,8.71094 18.2656,7.94792 18.2656,7 C18.2656,6.05208 18.5026,5.28906 18.9766,4.71094 C19.4505,4.13281 20.0417,3.84375 20.75,3.84375 C21.1146,3.84375 21.4948,3.98958 21.8906,4.28125 C22.1615,4.47917 22.4115,4.83854 22.6406,5.35938 M19.4062,4.90625 C18.9896,5.32292 18.7812,6.02083 18.7812,7 C18.7812,7.97917 18.9896,8.67708 19.4062,9.09375 C19.8229,9.51042 20.2604,9.71875 20.7188,9.71875 C21.1667,9.71875 21.599,9.51042 22.0156,9.09375 C22.4219,8.67708 22.625,7.97917 22.625,7 C22.625,6.02083 22.4219,5.32292 22.0156,4.90625 C21.599,4.48958 21.1667,4.28125 20.7188,4.28125 C20.2604,4.28125 19.8229,4.48958 19.4062,4.90625 M29.1875,5.01562 C28.8333,4.52604 28.349,4.28125 27.7344,4.28125 C27.1198,4.28125 26.6354,4.52604 26.2812,5.01562 C25.9271,5.49479 25.75,6.15104 25.75,6.98438 C25.75,7.83854 25.9271,8.51042 26.2812,9 C26.6354,9.48958 27.1198,9.73438 27.7344,9.73438 C28.349,9.73438 28.8333,9.48958 29.1875,9 C29.5417,8.5 29.7188,7.82812 29.7188,6.98438 C29.7188,6.16146 29.5417,5.50521 29.1875,5.01562 M27.7344,3.84375 C28.4948,3.84375 29.099,4.13021 29.5469,4.70312 C29.9948,5.27604 30.2188,6.03646 30.2188,6.98438 C30.2188,7.97396 29.9948,8.75521 29.5469,9.32812 C29.099,9.90104 28.4948,10.1875 27.7344,10.1875 C26.9531,10.1875 26.3385,9.90104 25.8906,9.32812 C25.4531,8.75521 25.2344,7.97396 25.2344,6.98438 C25.2344,6.02604 25.4583,5.26302 25.9062,4.69531 C26.3542,4.1276 26.9635,3.84375 27.7344,3.84375 M32.7188,9.5625 L34.4844,9.5625 L34.4844,2.46875 L32.2812,3.35938 L32.2812,2.85938 L34.4688,1.98438 L35.0156,1.98438 L35.0156,9.5625 L36.7969,9.5625 L36.7969,10 L32.7188,10 L32.7188,9.5625"/>
</g>

<g fill="none" stroke="#000000" stroke-opacity="1" stroke-width="1" stroke-linecap="square" stroke-linejoin="bevel" transform="matrix(2,0,0,2,207.616,23)"
font-family="sans" font-size="11" font-weight="100" font-style="normal" 
>
</g>

<g fill="none" stroke="#000000" stroke-opacity="1" stroke-width="1" stroke-linecap="square" stroke-linejoin="bevel" transform="matrix(2,0,0,2,207.616,23)"
font-family="Ubuntu" font-size="11" font-weight="400" font-style="normal" 
>
</g>

<g fill="none" stroke="#000000" stroke-opacity="1" stroke-width="1" stroke-linecap="square" stroke-linejoin="bevel" transform="matrix(2,0,0,2,-0.0016,180)"
font-family="Ubuntu" font-size="11" font-weight="400" font-style="normal" 
>
</g>

<g fill="none" stroke="#000000" stroke-opacity="1" stroke-width="1" stroke-linecap="square" stroke-linejoin="bevel" transform="matrix(2,0,0,2,-0.0016,180)"
font-family="Ubuntu" font-size="11" font-weight="400" font-style="normal" 
>
</g>

<g fill="none" stroke="#000000" stroke-opacity="1" stroke-width="1" stroke-linecap="square" stroke-linejoin="bevel" transform="matrix(2,0,0,2,-0.0016,180)"
font-family="Ubuntu" font-size="11" font-weight="400" font-style="normal" 
>
</g>

<g fill="none" stroke="#000000" stroke-opacity="1" stroke-width="1" stroke-linecap="square" stroke-linejoin="round" transform="matrix(2,0,0,2,-0.0016,180)"
font-family="Ubuntu" font-size="11" font-weight="400" font-style="normal" 
>
<path vector-effect="none" fill-rule="evenodd" d="M233.65,-25.849 C257.17,-28.22 281.81,-31.228 304.68,-35 C305.14,-35.076 305.61,-35.155 306.07,-35.236 "/>
</g>

<g fill="none" stroke="#000000" stroke-opacity="1" stroke-width="1" stroke-linecap="square" stroke-linejoin="bevel" transform="matrix(2,0,0,2,-0.0016,180)"
font-family="Ubuntu" font-size="11" font-weight="400" font-style="normal" 
>
</g>

<g fill="none" stroke="#000000" stroke-opacity="1" stroke-width="1" stroke-linecap="square" stroke-linejoin="bevel" transform="matrix(2,0,0,2,515.718,82)"
font-family="Ubuntu" font-size="11" font-weight="400" font-style="normal" 
>
</g>

<g fill="none" stroke="#000000" stroke-opacity="1" stroke-width="1" stroke-linecap="square" stroke-linejoin="bevel" transform="matrix(2,0,0,2,515.718,82)"
font-family="sans" font-size="11" font-weight="100" font-style="normal" 
>
</g>

<g fill="#000000" fill-opacity="1" stroke="#000000" stroke-opacity="1" stroke-width="1" stroke-linecap="square" stroke-linejoin="round" transform="matrix(2,0,0,2,515.718,82)"
font-family="sans" font-size="11" font-weight="100" font-style="normal" 
>
<path vector-effect="none" fill-rule="nonzero" d="M2.96875,1.98438 L3.53125,1.98438 L0.734375,11.0156 L0.171875,11.0156 L2.96875,1.98438 M9.0625,4.28125 L9.0625,4.79688 C8.77083,4.61979 8.52604,4.5 8.32812,4.4375 C7.99479,4.33333 7.67708,4.28125 7.375,4.28125 C6.51042,4.28125 5.89062,4.5026 5.51562,4.94531 C5.14062,5.38802 4.95312,6.07292 4.95312,7 C4.95312,7.9375 5.14062,8.6276 5.51562,9.07031 C5.89062,9.51302 6.51042,9.73438 7.375,9.73438 C7.66667,9.73438 7.94792,9.69271 8.21875,9.60938 C8.51042,9.53646 8.79167,9.42188 9.0625,9.26562 L9.0625,9.76562 C8.79167,9.90104 8.51042,10 8.21875,10.0625 C7.91667,10.125 7.61979,10.1562 7.32812,10.1562 C6.45312,10.1562 5.75521,9.91667 5.23438,9.4375 C4.71354,8.95833 4.45312,8.14323 4.45312,6.99219 C4.45312,5.84115 4.71354,5.02604 5.23438,4.54688 C5.75521,4.07812 6.45312,3.84375 7.32812,3.84375 C7.61979,3.84375 7.92708,3.88542 8.25,3.96875 C8.57292,4.04167 8.84375,4.14583 9.0625,4.28125 M15.5469,6.375 L15.5469,10 L15.0469,10 L15.0469,6.40625 C15.0469,5.625 14.9167,5.07552 14.6562,4.75781 C14.3958,4.4401 14,4.28125 13.4688,4.28125 C12.8542,4.28125 12.3698,4.45833 12.0156,4.8125 C11.6615,5.16667 11.4844,5.76042 11.4844,6.59375 L11.4844,10 L11,10 L11,1.64062 L11.4844,1.64062 L11.4844,5.09375 C11.599,4.79167 11.8073,4.52083 12.1094,4.28125 C12.4531,3.98958 12.9427,3.84375 13.5781,3.84375 C14.1823,3.84375 14.6615,4.05729 15.0156,4.48438 C15.3698,4.91146 15.5469,5.54167 15.5469,6.375 M21.5469,5.01562 C21.1927,4.52604 20.7083,4.28125 20.0938,4.28125 C19.4792,4.28125 18.9948,4.52604 18.6406,5.01562 C18.2865,5.49479 18.1094,6.15104 18.1094,6.98438 C18.1094,7.83854 18.2865,8.51042 18.6406,9 C18.9948,9.48958 19.4792,9.73438 20.0938,9.73438 C20.7083,9.73438 21.1927,9.48958 21.5469,9 C21.901,8.5 22.0781,7.82812 22.0781,6.98438 C22.0781,6.16146 21.901,5.50521 21.5469,5.01562 M20.0938,3.84375 C20.8542,3.84375 21.4583,4.13021 21.9062,4.70312 C22.3542,5.27604 22.5781,6.03646 22.5781,6.98438 C22.5781,7.97396 22.3542,8.75521 21.9062,9.32812 C21.4583,9.90104 20.8542,10.1875 20.0938,10.1875 C19.3125,10.1875 18.6979,9.90104 18.25,9.32812 C17.8125,8.75521 17.5938,7.97396 17.5938,6.98438 C17.5938,6.02604 17.8177,5.26302 18.2656,4.69531 C18.7135,4.1276 19.3229,3.84375 20.0938,3.84375 M28.2656,5.01562 C27.9115,4.52604 27.4271,4.28125 26.8125,4.28125 C26.1979,4.28125 25.7135,4.52604 25.3594,5.01562 C25.0052,5.49479 24.8281,6.15104 24.8281,6.98438 C24.8281,7.83854 25.0052,8.51042 25.3594,9 C25.7135,9.48958 26.1979,9.73438 26.8125,9.73438 C27.4271,9.73438 27.9115,9.48958 28.2656,9 C28.6198,8.5 28.7969,7.82812 28.7969,6.98438 C28.7969,6.16146 28.6198,5.50521 28.2656,5.01562 M26.8125,3.84375 C27.5729,3.84375 28.1771,4.13021 28.625,4.70312 C29.0729,5.27604 29.2969,6.03646 29.2969,6.98438 C29.2969,7.97396 29.0729,8.75521 28.625,9.32812 C28.1771,9.90104 27.5729,10.1875 26.8125,10.1875 C26.0312,10.1875 25.4167,9.90104 24.9688,9.32812 C24.5312,8.75521 24.3125,7.97396 24.3125,6.98438 C24.3125,6.02604 24.5365,5.26302 24.9844,4.69531 C25.4323,4.1276 26.0417,3.84375 26.8125,3.84375 M34.8125,4.15625 L34.8125,4.70312 C34.4583,4.50521 34.2396,4.39583 34.1562,4.375 C33.9062,4.32292 33.5938,4.29167 33.2188,4.28125 C32.6562,4.28125 32.2135,4.39062 31.8906,4.60938 C31.6406,4.79688 31.5156,5.11458 31.5156,5.5625 C31.5156,5.875 31.6354,6.11458 31.875,6.28125 C32.1146,6.46875 32.4635,6.61458 32.9219,6.71875 L33.2656,6.78125 C33.8385,6.90625 34.2708,7.08333 34.5625,7.3125 C34.9062,7.58333 35.0833,7.92708 35.0938,8.34375 C35.0938,8.90625 34.9271,9.34896 34.5938,9.67188 C34.2396,9.99479 33.6615,10.1562 32.8594,10.1562 C32.4219,10.1562 32.0885,10.125 31.8594,10.0625 C31.5781,9.98958 31.2865,9.89583 30.9844,9.78125 L30.9844,9.15625 C31.4219,9.40625 31.7031,9.55208 31.8281,9.59375 C32.1823,9.6875 32.5365,9.73438 32.8906,9.73438 C33.4635,9.73438 33.8906,9.61458 34.1719,9.375 C34.4531,9.125 34.5938,8.80729 34.5938,8.42188 C34.5938,8.08854 34.5,7.84896 34.3125,7.70312 C34.0417,7.48438 33.6146,7.30729 33.0312,7.17188 L32.6875,7.09375 C32.1771,6.96875 31.7917,6.80208 31.5312,6.59375 C31.1979,6.32292 31.0312,5.99479 31.0312,5.60938 C31.0312,4.98438 31.2318,4.53385 31.6328,4.25781 C32.0339,3.98177 32.526,3.84375 33.1094,3.84375 C33.6094,3.84375 33.9531,3.86979 34.1406,3.92188 C34.3698,3.98438 34.5938,4.0625 34.8125,4.15625 M41.8125,6.75 L41.8125,7.0625 L37.25,7.0625 C37.25,8.02083 37.4375,8.69792 37.8125,9.09375 C38.2292,9.52083 38.8438,9.73438 39.6562,9.73438 C39.875,9.73438 40.1615,9.6875 40.5156,9.59375 C40.8698,9.5 41.224,9.35938 41.5781,9.17188 L41.5781,9.6875 C41.224,9.84375 40.862,9.96094 40.4922,10.0391 C40.1224,10.1172 39.8281,10.1562 39.6094,10.1562 C38.6823,10.1562 37.9844,9.90625 37.5156,9.40625 C37.0052,8.875 36.75,8.09375 36.75,7.0625 C36.75,5.98958 36.9792,5.1875 37.4375,4.65625 C37.9167,4.11458 38.5833,3.84375 39.4375,3.84375 C40.2188,3.84375 40.8125,4.10417 41.2188,4.625 C41.6146,5.16667 41.8125,5.875 41.8125,6.75 M41.3125,6.64062 C41.3125,5.79688 41.1198,5.18229 40.7344,4.79688 C40.4219,4.45312 39.9896,4.28125 39.4375,4.28125 C38.8438,4.28125 38.3438,4.45833 37.9375,4.8125 C37.5625,5.14583 37.3385,5.75521 37.2656,6.64062 L41.3125,6.64062"/>
</g>

<g fill="none" stroke="#000000" stroke-opacity="1" stroke-width="1" stroke-linecap="square" stroke-linejoin="bevel" transform="matrix(2,0,0,2,515.718,82)"
font-family="sans" font-size="11" font-weight="100" font-style="normal" 
>
</g>

<g fill="none" stroke="#000000" stroke-opacity="1" stroke-width="1" stroke-linecap="square" stroke-linejoin="bevel" transform="matrix(2,0,0,2,515.718,82)"
font-family="Ubuntu" font-size="11" font-weight="400" font-style="normal" 
>
</g>

<g fill="none" stroke="#000000" stroke-opacity="1" stroke-width="1" stroke-linecap="square" stroke-linejoin="bevel" transform="matrix(2,0,0,2,-0.0016,180)"
font-family="Ubuntu" font-size="11" font-weight="400" font-style="normal" 
>
</g>

<g fill="#000000" fill-opacity="1" stroke="#000000" stroke-opacity="1" stroke-width="1" stroke-linecap="square" stroke-linejoin="round" transform="matrix(2,0,0,2,-0.0016,180)"
font-family="Ubuntu" font-size="11" font-weight="400" font-style="normal" 
>
<path vector-effect="none" fill-rule="evenodd" d="M306.07,-35.236 L306.751,-31.736 L316.07,-37.183 L305.389,-38.736 L306.07,-35.236"/>
</g>

<g fill="none" stroke="#000000" stroke-opacity="1" stroke-width="1" stroke-linecap="square" stroke-linejoin="bevel" transform="matrix(2,0,0,2,-0.0016,180)"
font-family="Ubuntu" font-size="11" font-weight="400" font-style="normal" 
>
</g>

<g fill="none" stroke="#000000" stroke-opacity="1" stroke-width="1" stroke-linecap="square" stroke-linejoin="bevel" transform="matrix(2,0,0,2,-0.0016,180)"
font-family="Ubuntu" font-size="11" font-weight="400" font-style="normal" 
>
</g>

<g fill="none" stroke="#000000" stroke-opacity="1" stroke-width="1" stroke-linecap="square" stroke-linejoin="bevel" transform="matrix(2,0,0,2,-0.0016,180)"
font-family="Ubuntu" font-size="11" font-weight="400" font-style="normal" 
>
</g>

<g fill="none" stroke="#000000" stroke-opacity="1" stroke-width="1" stroke-linecap="square" stroke-linejoin="bevel" transform="matrix(2,0,0,2,-0.0016,180)"
font-family="Ubuntu" font-size="11" font-weight="400" font-style="normal" 
>
</g>

<g fill="none" stroke="#000000" stroke-opacity="1" stroke-width="1" stroke-linecap="square" stroke-linejoin="round" transform="matrix(2,0,0,2,-0.0016,180)"
font-family="Ubuntu" font-size="11" font-weight="400" font-style="normal" 
>
<path vector-effect="none" fill-rule="evenodd" d="M157.21,-67.958 C196.15,-63.242 260.64,-55.432 303.42,-50.25 "/>
</g>

<g fill="none" stroke="#000000" stroke-opacity="1" stroke-width="1" stroke-linecap="square" stroke-linejoin="bevel" transform="matrix(2,0,0,2,-0.0016,180)"
font-family="Ubuntu" font-size="11" font-weight="400" font-style="normal" 
>
</g>

<g fill="none" stroke="#000000" stroke-opacity="1" stroke-width="1" stroke-linecap="square" stroke-linejoin="bevel" transform="matrix(2,0,0,2,505.655,40)"
font-family="Ubuntu" font-size="11" font-weight="400" font-style="normal" 
>
</g>

<g fill="none" stroke="#000000" stroke-opacity="1" stroke-width="1" stroke-linecap="square" stroke-linejoin="bevel" transform="matrix(2,0,0,2,505.655,40)"
font-family="sans" font-size="11" font-weight="100" font-style="normal" 
>
</g>

<g fill="#000000" fill-opacity="1" stroke="#000000" stroke-opacity="1" stroke-width="1" stroke-linecap="square" stroke-linejoin="round" transform="matrix(2,0,0,2,505.655,40)"
font-family="sans" font-size="11" font-weight="100" font-style="normal" 
>
<path vector-effect="none" fill-rule="nonzero" d="M2.96875,1.98438 L3.53125,1.98438 L0.734375,11.0156 L0.171875,11.0156 L2.96875,1.98438 M9.28125,5.29688 C9.46875,4.80729 9.76042,4.44271 10.1562,4.20312 C10.5417,3.96354 10.9948,3.84375 11.5156,3.84375 C12.0365,3.84375 12.4531,4.02604 12.7656,4.39062 C13.0885,4.75521 13.25,5.41667 13.25,6.375 L13.25,10 L12.7656,10 L12.7656,6.40625 C12.7656,5.57292 12.651,5.01042 12.4219,4.71875 C12.1927,4.42708 11.8854,4.28125 11.5,4.28125 C10.9479,4.28125 10.4635,4.44792 10.0469,4.78125 C9.57812,5.15625 9.34375,5.76042 9.34375,6.59375 L9.34375,10 L8.85938,10 L8.85938,6.40625 C8.85938,5.60417 8.7474,5.04948 8.52344,4.74219 C8.29948,4.4349 7.98958,4.28125 7.59375,4.28125 C7.04167,4.28125 6.55729,4.45312 6.14062,4.79688 C5.67188,5.16146 5.4375,5.76042 5.4375,6.59375 L5.4375,10 L4.95312,10 L4.95312,3.98438 L5.4375,3.98438 L5.4375,5.10938 C5.61458,4.71354 5.89062,4.40104 6.26562,4.17188 C6.63021,3.95312 7.08333,3.84375 7.625,3.84375 C7.97917,3.84375 8.31771,3.95833 8.64062,4.1875 C8.89062,4.375 9.10417,4.74479 9.28125,5.29688 M20.3438,6.75 L20.3438,7.0625 L15.7812,7.0625 C15.7812,8.02083 15.9688,8.69792 16.3438,9.09375 C16.7604,9.52083 17.375,9.73438 18.1875,9.73438 C18.4062,9.73438 18.6927,9.6875 19.0469,9.59375 C19.401,9.5 19.7552,9.35938 20.1094,9.17188 L20.1094,9.6875 C19.7552,9.84375 19.3932,9.96094 19.0234,10.0391 C18.6536,10.1172 18.3594,10.1562 18.1406,10.1562 C17.2135,10.1562 16.5156,9.90625 16.0469,9.40625 C15.5365,8.875 15.2812,8.09375 15.2812,7.0625 C15.2812,5.98958 15.5104,5.1875 15.9688,4.65625 C16.4479,4.11458 17.1146,3.84375 17.9688,3.84375 C18.75,3.84375 19.3438,4.10417 19.75,4.625 C20.1458,5.16667 20.3438,5.875 20.3438,6.75 M19.8438,6.64062 C19.8438,5.79688 19.651,5.18229 19.2656,4.79688 C18.9531,4.45312 18.5208,4.28125 17.9688,4.28125 C17.375,4.28125 16.875,4.45833 16.4688,4.8125 C16.0938,5.14583 15.8698,5.75521 15.7969,6.64062 L19.8438,6.64062 M25.8281,4.15625 L25.8281,4.70312 C25.474,4.50521 25.2552,4.39583 25.1719,4.375 C24.9219,4.32292 24.6094,4.29167 24.2344,4.28125 C23.6719,4.28125 23.2292,4.39062 22.9062,4.60938 C22.6562,4.79688 22.5312,5.11458 22.5312,5.5625 C22.5312,5.875 22.651,6.11458 22.8906,6.28125 C23.1302,6.46875 23.4792,6.61458 23.9375,6.71875 L24.2812,6.78125 C24.8542,6.90625 25.2865,7.08333 25.5781,7.3125 C25.9219,7.58333 26.099,7.92708 26.1094,8.34375 C26.1094,8.90625 25.9427,9.34896 25.6094,9.67188 C25.2552,9.99479 24.6771,10.1562 23.875,10.1562 C23.4375,10.1562 23.1042,10.125 22.875,10.0625 C22.5938,9.98958 22.3021,9.89583 22,9.78125 L22,9.15625 C22.4375,9.40625 22.7188,9.55208 22.8438,9.59375 C23.1979,9.6875 23.5521,9.73438 23.9062,9.73438 C24.4792,9.73438 24.9062,9.61458 25.1875,9.375 C25.4688,9.125 25.6094,8.80729 25.6094,8.42188 C25.6094,8.08854 25.5156,7.84896 25.3281,7.70312 C25.0573,7.48438 24.6302,7.30729 24.0469,7.17188 L23.7031,7.09375 C23.1927,6.96875 22.8073,6.80208 22.5469,6.59375 C22.2135,6.32292 22.0469,5.99479 22.0469,5.60938 C22.0469,4.98438 22.2474,4.53385 22.6484,4.25781 C23.0495,3.98177 23.5417,3.84375 24.125,3.84375 C24.625,3.84375 24.9688,3.86979 25.1562,3.92188 C25.3854,3.98438 25.6094,4.0625 25.8281,4.15625 M31.5469,4.15625 L31.5469,4.70312 C31.1927,4.50521 30.974,4.39583 30.8906,4.375 C30.6406,4.32292 30.3281,4.29167 29.9531,4.28125 C29.3906,4.28125 28.9479,4.39062 28.625,4.60938 C28.375,4.79688 28.25,5.11458 28.25,5.5625 C28.25,5.875 28.3698,6.11458 28.6094,6.28125 C28.849,6.46875 29.1979,6.61458 29.6562,6.71875 L30,6.78125 C30.5729,6.90625 31.0052,7.08333 31.2969,7.3125 C31.6406,7.58333 31.8177,7.92708 31.8281,8.34375 C31.8281,8.90625 31.6615,9.34896 31.3281,9.67188 C30.974,9.99479 30.3958,10.1562 29.5938,10.1562 C29.1562,10.1562 28.8229,10.125 28.5938,10.0625 C28.3125,9.98958 28.0208,9.89583 27.7188,9.78125 L27.7188,9.15625 C28.1562,9.40625 28.4375,9.55208 28.5625,9.59375 C28.9167,9.6875 29.2708,9.73438 29.625,9.73438 C30.1979,9.73438 30.625,9.61458 30.9062,9.375 C31.1875,9.125 31.3281,8.80729 31.3281,8.42188 C31.3281,8.08854 31.2344,7.84896 31.0469,7.70312 C30.776,7.48438 30.349,7.30729 29.7656,7.17188 L29.4219,7.09375 C28.9115,6.96875 28.526,6.80208 28.2656,6.59375 C27.9323,6.32292 27.7656,5.99479 27.7656,5.60938 C27.7656,4.98438 27.9661,4.53385 28.3672,4.25781 C28.7682,3.98177 29.2604,3.84375 29.8438,3.84375 C30.3438,3.84375 30.6875,3.86979 30.875,3.92188 C31.1042,3.98438 31.3281,4.0625 31.5469,4.15625 M36.2656,6.60938 C35.4635,6.60938 34.888,6.75 34.5391,7.03125 C34.1901,7.3125 34.0156,7.72396 34.0156,8.26562 C34.0156,8.79688 34.1615,9.17448 34.4531,9.39844 C34.7448,9.6224 35.0885,9.73438 35.4844,9.73438 C36.2344,9.73438 36.776,9.41667 37.1094,8.78125 C37.4427,8.13542 37.6094,7.53125 37.6094,6.96875 L37.6094,6.60938 L36.2656,6.60938 M38.1094,6.5625 L38.1094,10 L37.6094,10 L37.6094,8.35938 C37.3385,9.16146 36.974,9.67188 36.5156,9.89062 C36.1615,10.0677 35.8021,10.1562 35.4375,10.1562 C34.8438,10.1562 34.375,9.99479 34.0312,9.67188 C33.6875,9.34896 33.5156,8.8776 33.5156,8.25781 C33.5156,7.63802 33.7396,7.14062 34.1875,6.76562 C34.6354,6.39062 35.3646,6.20312 36.375,6.20312 L37.6094,6.20312 L37.6094,6.10938 C37.6094,5.57812 37.4531,5.14062 37.1406,4.79688 C36.849,4.45312 36.3542,4.28125 35.6562,4.28125 C35.3125,4.28125 34.9635,4.34375 34.6094,4.46875 C34.3802,4.55208 34.0781,4.71875 33.7031,4.96875 L33.7031,4.4375 C34.026,4.23958 34.3281,4.09896 34.6094,4.01562 C35.0052,3.90104 35.3854,3.84375 35.75,3.84375 C36.4688,3.84375 37.0573,4.05729 37.5156,4.48438 C37.9115,4.84896 38.1094,5.54167 38.1094,6.5625 M44.5938,6.92188 C44.5938,6.08854 44.4245,5.44271 44.0859,4.98438 C43.7474,4.52604 43.2708,4.29688 42.6562,4.29688 C42.0521,4.29688 41.5807,4.52604 41.2422,4.98438 C40.9036,5.44271 40.7344,6.08854 40.7344,6.92188 C40.7344,7.75521 40.9036,8.40104 41.2422,8.85938 C41.5807,9.31771 42.0521,9.54688 42.6562,9.54688 C43.2708,9.54688 43.7474,9.31771 44.0859,8.85938 C44.4245,8.40104 44.5938,7.75521 44.5938,6.92188 M45.0781,9.25 C45.0781,10.5 44.8411,11.3177 44.3672,11.7031 C43.8932,12.0885 43.2917,12.2812 42.5625,12.2812 C42.2083,12.2812 41.8802,12.2604 41.5781,12.2188 C41.2656,12.1562 40.9635,12.0729 40.6719,11.9688 L40.6719,11.4062 C40.9635,11.5625 41.25,11.6797 41.5312,11.7578 C41.8125,11.8359 42.1042,11.875 42.4062,11.875 C43,11.875 43.513,11.7474 43.9453,11.4922 C44.3776,11.237 44.5938,10.5521 44.5938,9.4375 L44.5938,8.48438 C44.4375,8.90104 44.2344,9.22917 43.9844,9.46875 C43.5885,9.82292 43.1458,10 42.6562,10 C41.8958,10 41.3021,9.73177 40.875,9.19531 C40.4479,8.65885 40.2344,7.90104 40.2344,6.92188 C40.2344,5.94271 40.4479,5.1849 40.875,4.64844 C41.3021,4.11198 41.8958,3.84375 42.6562,3.84375 C43.1458,3.84375 43.5625,3.99479 43.9062,4.29688 C44.1771,4.53646 44.4062,4.85938 44.5938,5.26562 L44.5938,3.98438 L45.0781,3.98438 L45.0781,9.25 M51.875,6.75 L51.875,7.0625 L47.3125,7.0625 C47.3125,8.02083 47.5,8.69792 47.875,9.09375 C48.2917,9.52083 48.9062,9.73438 49.7188,9.73438 C49.9375,9.73438 50.224,9.6875 50.5781,9.59375 C50.9323,9.5 51.2865,9.35938 51.6406,9.17188 L51.6406,9.6875 C51.2865,9.84375 50.9245,9.96094 50.5547,10.0391 C50.1849,10.1172 49.8906,10.1562 49.6719,10.1562 C48.7448,10.1562 48.0469,9.90625 47.5781,9.40625 C47.0677,8.875 46.8125,8.09375 46.8125,7.0625 C46.8125,5.98958 47.0417,5.1875 47.5,4.65625 C47.9792,4.11458 48.6458,3.84375 49.5,3.84375 C50.2812,3.84375 50.875,4.10417 51.2812,4.625 C51.6771,5.16667 51.875,5.875 51.875,6.75 M51.375,6.64062 C51.375,5.79688 51.1823,5.18229 50.7969,4.79688 C50.4844,4.45312 50.0521,4.28125 49.5,4.28125 C48.9062,4.28125 48.4062,4.45833 48,4.8125 C47.625,5.14583 47.401,5.75521 47.3281,6.64062 L51.375,6.64062"/>
</g>

<g fill="none" stroke="#000000" stroke-opacity="1" stroke-width="1" stroke-linecap="square" stroke-linejoin="bevel" transform="matrix(2,0,0,2,505.655,40)"
font-family="sans" font-size="11" font-weight="100" font-style="normal" 
>
</g>

<g fill="none" stroke="#000000" stroke-opacity="1" stroke-width="1" stroke-linecap="square" stroke-linejoin="bevel" transform="matrix(2,0,0,2,505.655,40)"
font-family="Ubuntu" font-size="11" font-weight="400" font-style="normal" 
>
</g>

<g fill="none" stroke="#000000" stroke-opacity="1" stroke-width="1" stroke-linecap="square" stroke-linejoin="bevel" transform="matrix(2,0,0,2,-0.0016,180)"
font-family="Ubuntu" font-size="11" font-weight="400" font-style="normal" 
>
</g>

<g fill="#000000" fill-opacity="1" stroke="#000000" stroke-opacity="1" stroke-width="1" stroke-linecap="square" stroke-linejoin="round" transform="matrix(2,0,0,2,-0.0016,180)"
font-family="Ubuntu" font-size="11" font-weight="400" font-style="normal" 
>
<path vector-effect="none" fill-rule="evenodd" d="M303.42,-50.25 L302.992,-46.708 L313.54,-49.026 L303.848,-53.792 L303.42,-50.25"/>
</g>

<g fill="none" stroke="#000000" stroke-opacity="1" stroke-width="1" stroke-linecap="square" stroke-linejoin="bevel" transform="matrix(2,0,0,2,-0.0016,180)"
font-family="Ubuntu" font-size="11" font-weight="400" font-style="normal" 
>
</g>

<g fill="none" stroke="#000000" stroke-opacity="1" stroke-width="1" stroke-linecap="square" stroke-linejoin="bevel" transform="matrix(1,0,0,1,0,0)"
font-family="Ubuntu" font-size="11" font-weight="400" font-style="normal" 
>
</g>
</g>
</svg>
